<svg xmlns="http://www.w3.org/2000/svg" viewBox="0 0 31 17.27"><defs><style>.cls-1{fill:#514d03;}.cls-2{fill:orange;}</style></defs><g id="Layer_2" data-name="Layer 2"><g id="Layer_1-2" data-name="Layer 1"><path class="cls-1" d="M27.06,2.54l.39-1.16-6.21-.24H16.42C14.49.94,14.65,2.21,15,2.86l.83,2.38A21.73,21.73,0,0,0,16.88,8a1.54,1.54,0,0,0,.9,1.15h7.41l.58-1.73H20.2c-1.52.11-2.05-.41-2.13-.68l-.29-1c-.12-.28-.47-1.12-.9-2.19-.29-.78.48-1,.9-.93Z"/><path class="cls-2" d="M11.08,2c-4.39.9-5-.92-4.84-1.94h4.84A1.55,1.55,0,0,1,13,1.22L17,10h9.1l.64-1.37,1.05-3.22c.14-.4.66-1.81,1.7-4.19A1.39,1.39,0,0,1,31,3l-.56,1.7c-.35.83-1.29,3.2-2.26,6a2.18,2.18,0,0,1-1.45,1.45H21.79c-1.13,0-3.67.06-4.83,0a1.57,1.57,0,0,1-1.86-1l-1.21-2.5C13.68,8,12.82,5.83,11.08,2Z"/><path class="cls-1" d="M19.35,15.36a1.91,1.91,0,1,1-1.91-1.9A1.91,1.91,0,0,1,19.35,15.36Zm-2.81,0a.9.9,0,1,0,.9-.89A.9.9,0,0,0,16.54,15.36Z"/><path class="cls-1" d="M27.46,15.36a1.91,1.91,0,1,1-1.91-1.9A1.9,1.9,0,0,1,27.46,15.36Zm-2.8,0a.9.9,0,1,0,.89-.89A.89.89,0,0,0,24.66,15.36Z"/><path class="cls-1" d="M2.71,5.11H9a.42.42,0,0,1,.42.42h0A.42.42,0,0,1,9,6H2.71a.42.42,0,0,1-.42-.42h0A.42.42,0,0,1,2.71,5.11Z"/><path class="cls-1" d="M.42,5.11H.85a.42.42,0,0,1,.42.42h0A.42.42,0,0,1,.85,6H.42A.42.42,0,0,1,0,5.53H0A.42.42,0,0,1,.42,5.11Z"/><path class="cls-1" d="M5,8.09H9.92a.42.42,0,0,1,.42.43h0a.42.42,0,0,1-.42.42H5a.42.42,0,0,1-.42-.42h0A.42.42,0,0,1,5,8.09Z"/><path class="cls-1" d="M2.71,8.09h.43a.42.42,0,0,1,.42.43h0a.42.42,0,0,1-.42.42H2.71a.42.42,0,0,1-.42-.42h0A.42.42,0,0,1,2.71,8.09Z"/><path class="cls-1" d="M6.14,11.08h4.92a.42.42,0,0,1,.42.43h0a.42.42,0,0,1-.42.42H6.14a.42.42,0,0,1-.42-.42h0A.42.42,0,0,1,6.14,11.08Z"/><path class="cls-1" d="M3.86,11.08h.42a.42.42,0,0,1,.42.43h0a.42.42,0,0,1-.42.42H3.86a.42.42,0,0,1-.43-.42h0A.43.43,0,0,1,3.86,11.08Z"/></g></g></svg>