<svg width="217" height="42" viewBox="0 0 217 42" fill="none" xmlns="http://www.w3.org/2000/svg">
<path d="M86.64 11.34C87.76 11.34 88.7567 11.5633 89.63 12.01C90.51 12.45 91.22 13.06 91.76 13.84C92.3 14.6133 92.6233 15.4967 92.73 16.49H89.16C89.08 16.01 88.9267 15.5933 88.7 15.24C88.48 14.88 88.1867 14.6 87.82 14.4C87.46 14.2 87.03 14.1 86.53 14.1C85.95 14.1 85.4433 14.2467 85.01 14.54C84.5767 14.8267 84.24 15.3067 84 15.98C83.7667 16.6467 83.65 17.54 83.65 18.66C83.65 20.3667 83.91 21.59 84.43 22.33C84.9567 23.07 85.6567 23.44 86.53 23.44C87.03 23.44 87.46 23.32 87.82 23.08C88.1867 22.84 88.48 22.52 88.7 22.12C88.9267 21.7133 89.08 21.2733 89.16 20.8H92.73C92.6367 21.5133 92.4667 22.1967 92.22 22.85C91.98 23.4967 91.63 24.0733 91.17 24.58C90.71 25.0867 90.11 25.4833 89.37 25.77C88.6367 26.0567 87.7267 26.2 86.64 26.2C85.2667 26.2 84.0767 25.88 83.07 25.24C82.0633 24.5933 81.2833 23.7 80.73 22.56C80.1767 21.42 79.9 20.1033 79.9 18.61C79.9 17.1233 80.1733 15.8367 80.72 14.75C81.2667 13.6633 82.0433 12.8233 83.05 12.23C84.0633 11.6367 85.26 11.34 86.64 11.34ZM99.4589 26.2C99.0122 26.2 98.5589 26.1267 98.0989 25.98C97.6389 25.8333 97.2156 25.62 96.8289 25.34C96.4422 25.0533 96.1289 24.7067 95.8889 24.3C95.6556 23.8867 95.5389 23.4133 95.5389 22.88V15.66H98.9489V22.42C98.9489 22.8067 99.0822 23.13 99.3489 23.39C99.6156 23.6433 99.9989 23.77 100.499 23.77C100.979 23.77 101.359 23.6467 101.639 23.4C101.919 23.1467 102.059 22.8133 102.059 22.4V15.66H105.439V26H102.899L102.499 23.91C102.372 24.5567 102.139 25.0467 101.799 25.38C101.459 25.7067 101.076 25.9233 100.649 26.03C100.229 26.1433 99.8322 26.2 99.4589 26.2ZM113.043 15.46C113.956 15.46 114.74 15.6533 115.393 16.04C116.046 16.42 116.55 16.93 116.903 17.57C117.263 18.2033 117.46 18.8967 117.493 19.65H114.693C114.66 19.4167 114.583 19.1733 114.463 18.92C114.35 18.6667 114.18 18.4533 113.953 18.28C113.726 18.1 113.43 18.01 113.063 18.01C112.47 18.01 111.99 18.2467 111.623 18.72C111.263 19.1867 111.083 19.8933 111.083 20.84C111.083 21.7733 111.27 22.5033 111.643 23.03C112.016 23.5567 112.513 23.82 113.133 23.82C113.493 23.82 113.783 23.7233 114.003 23.53C114.23 23.3367 114.4 23.1133 114.513 22.86C114.626 22.6067 114.7 22.3833 114.733 22.19H117.443C117.423 22.9167 117.23 23.5833 116.863 24.19C116.503 24.7967 116 25.2833 115.353 25.65C114.706 26.0167 113.936 26.2 113.043 26.2C112.07 26.2 111.196 25.9833 110.423 25.55C109.656 25.11 109.05 24.49 108.603 23.69C108.156 22.89 107.933 21.9533 107.933 20.88C107.933 19.8067 108.15 18.8667 108.583 18.06C109.016 17.2467 109.616 16.61 110.383 16.15C111.156 15.69 112.043 15.46 113.043 15.46ZM123.857 26.2C123.41 26.2 122.957 26.1267 122.497 25.98C122.037 25.8333 121.613 25.62 121.227 25.34C120.84 25.0533 120.527 24.7067 120.287 24.3C120.053 23.8867 119.937 23.4133 119.937 22.88V15.66H123.347V22.42C123.347 22.8067 123.48 23.13 123.747 23.39C124.013 23.6433 124.397 23.77 124.897 23.77C125.377 23.77 125.757 23.6467 126.037 23.4C126.317 23.1467 126.457 22.8133 126.457 22.4V15.66H129.837V26H127.297L126.897 23.91C126.77 24.5567 126.537 25.0467 126.197 25.38C125.857 25.7067 125.473 25.9233 125.047 26.03C124.627 26.1433 124.23 26.2 123.857 26.2ZM132.89 26V15.66H136.23V17.11C136.557 16.6567 136.993 16.27 137.54 15.95C138.087 15.6233 138.76 15.46 139.56 15.46C139.907 15.46 140.26 15.5233 140.62 15.65C140.98 15.77 141.317 15.9533 141.63 16.2C141.95 16.44 142.22 16.74 142.44 17.1C142.773 16.6467 143.21 16.26 143.75 15.94C144.29 15.62 144.893 15.46 145.56 15.46C145.947 15.46 146.34 15.53 146.74 15.67C147.14 15.8033 147.503 16.0167 147.83 16.31C148.163 16.5967 148.43 16.9733 148.63 17.44C148.837 17.9067 148.94 18.4767 148.94 19.15V26H145.53V19.6C145.53 19.2733 145.457 19.01 145.31 18.81C145.17 18.6033 144.99 18.4533 144.77 18.36C144.55 18.26 144.32 18.21 144.08 18.21C143.853 18.21 143.627 18.2567 143.4 18.35C143.173 18.4433 142.983 18.5867 142.83 18.78C142.677 18.9733 142.6 19.22 142.6 19.52V26H139.2V19.47C139.2 19.1967 139.127 18.9667 138.98 18.78C138.84 18.5933 138.66 18.4533 138.44 18.36C138.227 18.26 138.003 18.21 137.77 18.21C137.543 18.21 137.313 18.26 137.08 18.36C136.853 18.4533 136.663 18.5967 136.51 18.79C136.363 18.9833 136.29 19.2267 136.29 19.52V26H132.89ZM155.344 15.66V26H152.094V15.66H155.344ZM155.354 11.54V14.5H152.084V11.54H155.354ZM162.886 26.2C162.166 26.2 161.463 26.08 160.776 25.84C160.089 25.6 159.503 25.2167 159.016 24.69C158.529 24.1633 158.216 23.4767 158.076 22.63H160.996C161.083 22.9833 161.239 23.2533 161.466 23.44C161.693 23.6267 161.936 23.7533 162.196 23.82C162.456 23.8867 162.679 23.92 162.866 23.92C163.359 23.92 163.759 23.85 164.066 23.71C164.373 23.57 164.526 23.3567 164.526 23.07C164.526 22.83 164.429 22.6433 164.236 22.51C164.049 22.37 163.723 22.26 163.256 22.18L161.576 21.87C160.629 21.69 159.863 21.36 159.276 20.88C158.696 20.3933 158.403 19.7067 158.396 18.82C158.389 18.1867 158.559 17.6167 158.906 17.11C159.253 16.6033 159.763 16.2033 160.436 15.91C161.109 15.61 161.936 15.46 162.916 15.46C164.256 15.46 165.323 15.7533 166.116 16.34C166.909 16.9267 167.309 17.7367 167.316 18.77H164.516C164.443 18.4167 164.253 18.15 163.946 17.97C163.646 17.7833 163.286 17.69 162.866 17.69C162.439 17.69 162.079 17.7633 161.786 17.91C161.499 18.05 161.356 18.2633 161.356 18.55C161.356 18.77 161.483 18.9467 161.736 19.08C161.989 19.2133 162.393 19.3333 162.946 19.44L164.456 19.75C165.076 19.9033 165.579 20.11 165.966 20.37C166.353 20.6233 166.649 20.9 166.856 21.2C167.069 21.5 167.216 21.8 167.296 22.1C167.376 22.3933 167.416 22.6533 167.416 22.88C167.416 23.5933 167.219 24.1967 166.826 24.69C166.433 25.1833 165.893 25.56 165.206 25.82C164.526 26.0733 163.753 26.2 162.886 26.2Z" fill="#514D03"/>
<path d="M170.481 11.54H173.891V23.17H179.921V26H170.471L170.481 11.54ZM186.618 26.2C186.172 26.2 185.718 26.1267 185.258 25.98C184.798 25.8333 184.375 25.62 183.988 25.34C183.602 25.0533 183.288 24.7067 183.048 24.3C182.815 23.8867 182.698 23.4133 182.698 22.88V15.66H186.108V22.42C186.108 22.8067 186.242 23.13 186.508 23.39C186.775 23.6433 187.158 23.77 187.658 23.77C188.138 23.77 188.518 23.6467 188.798 23.4C189.078 23.1467 189.218 22.8133 189.218 22.4V15.66H192.598V26H190.058L189.658 23.91C189.532 24.5567 189.298 25.0467 188.958 25.38C188.618 25.7067 188.235 25.9233 187.808 26.03C187.388 26.1433 186.992 26.2 186.618 26.2ZM199.902 26.2C199.182 26.2 198.479 26.08 197.792 25.84C197.106 25.6 196.519 25.2167 196.032 24.69C195.546 24.1633 195.232 23.4767 195.092 22.63H198.012C198.099 22.9833 198.256 23.2533 198.482 23.44C198.709 23.6267 198.952 23.7533 199.212 23.82C199.472 23.8867 199.696 23.92 199.882 23.92C200.376 23.92 200.776 23.85 201.082 23.71C201.389 23.57 201.542 23.3567 201.542 23.07C201.542 22.83 201.446 22.6433 201.252 22.51C201.066 22.37 200.739 22.26 200.272 22.18L198.592 21.87C197.646 21.69 196.879 21.36 196.292 20.88C195.712 20.3933 195.419 19.7067 195.412 18.82C195.406 18.1867 195.576 17.6167 195.922 17.11C196.269 16.6033 196.779 16.2033 197.452 15.91C198.126 15.61 198.952 15.46 199.932 15.46C201.272 15.46 202.339 15.7533 203.132 16.34C203.926 16.9267 204.326 17.7367 204.332 18.77H201.532C201.459 18.4167 201.269 18.15 200.962 17.97C200.662 17.7833 200.302 17.69 199.882 17.69C199.456 17.69 199.096 17.7633 198.802 17.91C198.516 18.05 198.372 18.2633 198.372 18.55C198.372 18.77 198.499 18.9467 198.752 19.08C199.006 19.2133 199.409 19.3333 199.962 19.44L201.472 19.75C202.092 19.9033 202.596 20.11 202.982 20.37C203.369 20.6233 203.666 20.9 203.872 21.2C204.086 21.5 204.232 21.8 204.312 22.1C204.392 22.3933 204.432 22.6533 204.432 22.88C204.432 23.5933 204.236 24.1967 203.842 24.69C203.449 25.1833 202.909 25.56 202.222 25.82C201.542 26.0733 200.769 26.2 199.902 26.2ZM207.138 26V11.14H210.528V17.14C210.688 16.92 210.884 16.6933 211.118 16.46C211.358 16.2267 211.658 16.03 212.018 15.87C212.378 15.71 212.831 15.63 213.378 15.63C214.031 15.63 214.631 15.76 215.178 16.02C215.724 16.28 216.161 16.66 216.488 17.16C216.821 17.66 216.988 18.2733 216.988 19V26H213.578V19.47C213.578 19.0633 213.428 18.7567 213.128 18.55C212.828 18.3367 212.484 18.23 212.098 18.23C211.844 18.23 211.598 18.28 211.358 18.38C211.118 18.48 210.921 18.6267 210.768 18.82C210.614 19.0133 210.538 19.25 210.538 19.53V26H207.138Z" fill="#FFA500"/>
<path d="M65.8177 6.16892L66.771 3.36033L51.6459 2.76769H39.922C35.2427 2.29358 35.6361 5.37015 36.4177 6.96769L38.4275 12.7395C38.6594 13.5812 39.5097 16.0892 41.0557 19.3873C41.5504 21.2838 42.722 22.0327 43.2459 22.1701H61.2569L62.6741 17.9701H57.933H49.1207C45.4309 18.2381 44.1305 16.9824 43.9416 16.3211L43.2459 13.7701C42.9539 13.0744 42.107 11.0337 41.0557 8.4364C40.3548 6.53996 42.2238 6.13456 43.2459 6.16892H65.8177Z" fill="#514D03"/>
<path d="M26.9354 4.93212C16.2782 7.13777 14.6618 2.70758 15.1857 0.216786H26.9354C29.5945 -0.731435 31.1869 1.65973 31.6507 2.97384L41.236 24.3088H45.3587H54.171H63.3697L64.9415 20.9849L67.4924 13.1518C67.8188 12.1726 69.1003 8.76623 71.6151 2.97384C75.2225 2.82955 75.5918 5.78243 75.3256 7.27691L73.9599 11.3996C73.1096 13.418 70.8215 19.1812 68.4716 26.0867C67.5233 28.6016 65.7231 29.4879 64.9415 29.6168H52.9857C50.2458 29.6769 44.06 29.7611 41.236 29.6168C38.5768 30.2558 37.1219 28.1824 36.7268 27.0659L33.7894 20.9849C33.274 19.4818 31.1818 14.167 26.9354 4.93212Z" fill="#FFA500"/>
<path d="M47.0504 37.3619C47.0504 39.9235 44.9738 42 42.4123 42C39.8508 42 37.7743 39.9235 37.7743 37.3619C37.7743 34.8004 39.8508 32.7239 42.4123 32.7239C44.9738 32.7239 47.0504 34.8004 47.0504 37.3619ZM40.2348 37.3619C40.2348 38.5646 41.2097 39.5395 42.4123 39.5395C43.615 39.5395 44.5899 38.5646 44.5899 37.3619C44.5899 36.1593 43.615 35.1844 42.4123 35.1844C41.2097 35.1844 40.2348 36.1593 40.2348 37.3619Z" fill="#514D03"/>
<path d="M66.7878 37.3619C66.7878 39.9235 64.7113 42 62.1498 42C59.5882 42 57.5117 39.9235 57.5117 37.3619C57.5117 34.8004 59.5882 32.7239 62.1498 32.7239C64.7113 32.7239 66.7878 34.8004 66.7878 37.3619ZM59.9722 37.3619C59.9722 38.5646 60.9471 39.5395 62.1498 39.5395C63.3524 39.5395 64.3273 38.5646 64.3273 37.3619C64.3273 36.1593 63.3524 35.1844 62.1498 35.1844C60.9471 35.1844 59.9722 36.1593 59.9722 37.3619Z" fill="#514D03"/>
<rect x="5.56567" y="12.4201" width="17.4184" height="2.06135" rx="0.423787" fill="#514D03"/>
<rect y="12.4201" width="3.09202" height="2.06135" rx="0.423787" fill="#514D03"/>
<rect x="11.131" y="19.6861" width="14.0172" height="2.06135" rx="0.423787" fill="#514D03"/>
<rect x="5.56537" y="19.6861" width="3.09202" height="2.06135" rx="0.423787" fill="#514D03"/>
<rect x="13.9142" y="26.9521" width="14.0172" height="2.06135" rx="0.423787" fill="#514D03"/>
<rect x="8.34851" y="26.9521" width="3.09202" height="2.06135" rx="0.423787" fill="#514D03"/>
</svg>
