<svg xmlns="http://www.w3.org/2000/svg" viewBox="0 0 31 22.16"><defs><style>.cls-1{fill:#514d03;}.cls-2{fill:orange;}</style></defs><g id="Layer_2" data-name="Layer 2"><g id="Layer_1-2" data-name="Layer 1"><path class="cls-1" d="M7.07,20.07a.92.92,0,0,0-.26-.59.85.85,0,0,0-.56-.21,1,1,0,0,0-.41.1,1.06,1.06,0,0,0-.32.28,1.22,1.22,0,0,0-.21.41,1.72,1.72,0,0,0-.07.52,1.67,1.67,0,0,0,.13.69,1.14,1.14,0,0,0,.37.46,1,1,0,0,0,.55.17,1.27,1.27,0,0,0,1-.5l.14.12a1.71,1.71,0,0,1-.41.4,1.45,1.45,0,0,1-.43.19,1.89,1.89,0,0,1-.39.05,1.53,1.53,0,0,1-1-.43,1.66,1.66,0,0,1-.29-.48,1.68,1.68,0,0,1-.1-.6,2,2,0,0,1,.09-.58,1.56,1.56,0,0,1,.27-.51,1.5,1.5,0,0,1,.46-.37,1.48,1.48,0,0,1,.65-.13,1.52,1.52,0,0,1,.42.06,1.59,1.59,0,0,1,.4.18l0-.21h.26v1Zm1.51,2.09a.82.82,0,0,1-.4-.09A.57.57,0,0,1,8,21.78a1.67,1.67,0,0,1-.07-.55v-.81c0-.06,0-.11,0-.16H7.6v-.22h.1A.89.89,0,0,0,8,20a.35.35,0,0,0,.15-.08h.16v1.29a1.06,1.06,0,0,0,.09.5.31.31,0,0,0,.31.16A.48.48,0,0,0,9,21.8a.85.85,0,0,0,.22-.2V20.42c0-.05,0-.11,0-.16H9v-.22h.12a.78.78,0,0,0,.29,0,.35.35,0,0,0,.15-.08h.16v1.75c0,.07,0,.14,0,.2H10v.22H9.28a.59.59,0,0,1,0-.13s0-.07,0-.11a1.89,1.89,0,0,1-.31.22A.77.77,0,0,1,8.58,22.16Zm2.69,0a1.07,1.07,0,0,1-.53-.13,1.12,1.12,0,0,1-.38-.37,1.2,1.2,0,0,1-.14-.59,1.26,1.26,0,0,1,.08-.43,1.33,1.33,0,0,1,.23-.38,1,1,0,0,1,.35-.26,1.05,1.05,0,0,1,.44-.1,1.1,1.1,0,0,1,.43.08.64.64,0,0,1,.27.2.39.39,0,0,1,.1.27.27.27,0,0,1-.06.17.18.18,0,0,1-.17.08.18.18,0,0,1-.17-.07.3.3,0,0,1-.05-.15.25.25,0,0,1,0-.08.13.13,0,0,1,.05-.09.24.24,0,0,0-.11-.13.52.52,0,0,0-.16-.06h-.14a.55.55,0,0,0-.43.22,1,1,0,0,0-.18.63,1.4,1.4,0,0,0,.08.47.73.73,0,0,0,.23.33.62.62,0,0,0,.37.13.71.71,0,0,0,.37-.1,1,1,0,0,0,.29-.25l.13.11a1.21,1.21,0,0,1-.28.31,1.09,1.09,0,0,1-.33.15A1.11,1.11,0,0,1,11.27,22.16Zm2.1,0a.82.82,0,0,1-.4-.09.55.55,0,0,1-.22-.29,1.64,1.64,0,0,1-.08-.55v-.81a.78.78,0,0,1,0-.16h-.3v-.22h.1a.89.89,0,0,0,.32,0,.35.35,0,0,0,.15-.08h.16v1.29a1.06,1.06,0,0,0,.09.5.32.32,0,0,0,.32.16.47.47,0,0,0,.27-.08.71.71,0,0,0,.22-.2v-1a1,1,0,0,1,0-.18.86.86,0,0,1,0-.16h-.3v-.22h.12a.78.78,0,0,0,.29,0,.48.48,0,0,0,.16-.08h.16v1.75c0,.07,0,.14,0,.2h.29v.22h-.67s0-.09,0-.13,0-.07,0-.11a1.89,1.89,0,0,1-.31.22A.74.74,0,0,1,13.37,22.16ZM15,22.09v-.18a.21.21,0,0,0,.17-.06.21.21,0,0,0,.06-.16,1.69,1.69,0,0,0,0-.25v-1c0-.06,0-.11,0-.16H15v-.22l.3,0,.16,0,.09-.06h.16V20a.49.49,0,0,1,0,.12A1.49,1.49,0,0,1,16,20a1,1,0,0,1,.33-.07.71.71,0,0,1,.34.08.56.56,0,0,1,.22.21,1.38,1.38,0,0,1,.33-.2.87.87,0,0,1,.37-.09.64.64,0,0,1,.53.22,1,1,0,0,1,.17.71v.74a.76.76,0,0,1,0,.15.86.86,0,0,1,0,.16h.27v.22h-.93v-.18a.22.22,0,0,0,.17-.06.25.25,0,0,0,.05-.16,1.69,1.69,0,0,0,0-.25v-.61a1,1,0,0,0-.11-.49.38.38,0,0,0-.32-.16.54.54,0,0,0-.25.06.74.74,0,0,0-.21.13.41.41,0,0,1,0,.16,1.09,1.09,0,0,1,0,.18v1c0,.05,0,.11,0,.16h.27v.22h-.94v-.18a.21.21,0,0,0,.17-.06.21.21,0,0,0,.06-.16,1.85,1.85,0,0,0,0-.25v-.61a.82.82,0,0,0-.09-.49.34.34,0,0,0-.32-.16.74.74,0,0,0-.43.19v1.35c0,.05,0,.11,0,.16H16v.22Zm3.82-.18a.22.22,0,0,0,.18-.06.21.21,0,0,0,.06-.16,1.85,1.85,0,0,0,0-.25v-.87c0-.05,0-.1,0-.15s0-.1,0-.16h-.3v-.22l.3,0,.18,0,.09-.06h.16v1.79c0,.05,0,.11,0,.16h.27v.22h-.95Zm.46-2.37a.26.26,0,0,1-.19-.08.29.29,0,0,1-.07-.2.24.24,0,0,1,.08-.2.23.23,0,0,1,.36,0,.28.28,0,0,1,.08.2.3.3,0,0,1-.08.2A.25.25,0,0,1,19.32,19.54ZM21,22.16a1.15,1.15,0,0,1-.37-.06.85.85,0,0,1-.27-.12v.14h-.22l0-.73h.18a.5.5,0,0,0,.09.29.74.74,0,0,0,.23.2A.82.82,0,0,0,21,22a.58.58,0,0,0,.19,0,.62.62,0,0,0,.16-.1.27.27,0,0,0,0-.34.83.83,0,0,0-.18-.13l-.26-.11-.26-.1a1.71,1.71,0,0,1-.23-.13.65.65,0,0,1-.18-.19.61.61,0,0,1-.06-.28.59.59,0,0,1,0-.21.57.57,0,0,1,.12-.21.66.66,0,0,1,.23-.15.92.92,0,0,1,.36-.07,1.29,1.29,0,0,1,.25,0,.84.84,0,0,1,.27.13v-.14h.23v.74h-.18a.62.62,0,0,0-.09-.27.46.46,0,0,0-.18-.21.53.53,0,0,0-.56,0,.28.28,0,0,0-.1.21.3.3,0,0,0,.08.2.69.69,0,0,0,.21.13l.27.11a3.49,3.49,0,0,1,.34.15.88.88,0,0,1,.25.22.53.53,0,0,1,.1.32.56.56,0,0,1-.11.35.58.58,0,0,1-.28.21A.86.86,0,0,1,21,22.16Z"/><path class="cls-2" d="M22.06,21.91a.24.24,0,0,0,.18-.06.34.34,0,0,0,.06-.16c0-.07,0-.15,0-.25V19.38c0-.05,0-.1,0-.16H22V19l.31,0,.17,0,.09-.06h.16v2.83c0,.05,0,.11,0,.16H23v.22h-.94Zm2.15.25a.82.82,0,0,1-.4-.09.62.62,0,0,1-.23-.29,1.67,1.67,0,0,1-.07-.55v-.81a.78.78,0,0,1,0-.16h-.3v-.22h.1a.89.89,0,0,0,.32,0,.35.35,0,0,0,.15-.08H24v1.29a1.06,1.06,0,0,0,.09.5.31.31,0,0,0,.31.16.48.48,0,0,0,.28-.08.85.85,0,0,0,.22-.2V20.42c0-.05,0-.11,0-.16h-.3v-.22h.12A.78.78,0,0,0,25,20a.35.35,0,0,0,.15-.08h.17v1.75c0,.07,0,.14,0,.2h.3v.22h-.67s0-.09,0-.13,0-.07,0-.11a1.89,1.89,0,0,1-.31.22A.77.77,0,0,1,24.21,22.16Zm2.57,0a1.1,1.1,0,0,1-.37-.06.85.85,0,0,1-.27-.12v.14h-.22l0-.73h.17a.59.59,0,0,0,.1.29.74.74,0,0,0,.23.2.82.82,0,0,0,.31.07.63.63,0,0,0,.19,0l.16-.1a.25.25,0,0,0,.06-.17.22.22,0,0,0-.07-.17.52.52,0,0,0-.18-.13l-.25-.11-.26-.1L26.13,21a.53.53,0,0,1-.23-.47.88.88,0,0,1,0-.21.8.8,0,0,1,.13-.21.57.57,0,0,1,.23-.15.87.87,0,0,1,.35-.07,1.38,1.38,0,0,1,.26,0,.91.91,0,0,1,.26.13v-.14h.22v.74H27.2a.61.61,0,0,0-.08-.27.46.46,0,0,0-.18-.21.47.47,0,0,0-.29-.08.46.46,0,0,0-.27.08.25.25,0,0,0-.1.21.29.29,0,0,0,.07.2,1.07,1.07,0,0,0,.21.13l.28.11a2.52,2.52,0,0,1,.33.15.8.8,0,0,1,.26.22.53.53,0,0,1,.09.32.51.51,0,0,1-.11.35.56.56,0,0,1-.27.21A.86.86,0,0,1,26.78,22.16Zm2.41-.25a.22.22,0,0,0,.18-.06.21.21,0,0,0,.06-.16,1.69,1.69,0,0,0,0-.25v-.59a1,1,0,0,0-.1-.5.37.37,0,0,0-.33-.17.89.89,0,0,0-.28.07.73.73,0,0,0-.22.16v1.31c0,.05,0,.11,0,.16h.27v.22h-.94v-.18a.21.21,0,0,0,.17-.06.26.26,0,0,0,.07-.16,1.85,1.85,0,0,0,0-.25V19.38c0-.05,0-.1,0-.16h-.3V19l.31,0,.17,0,.09-.06h.16v1.28a1.07,1.07,0,0,1,.21-.13l.23-.1a1,1,0,0,1,.23,0,.63.63,0,0,1,.54.23,1.34,1.34,0,0,1,.17.72v.72a.76.76,0,0,1,0,.15.86.86,0,0,1,0,.16h.27v.22h-.95Z"/><path class="cls-1" d="M27.06,2.54l.39-1.16-6.21-.24H16.42C14.49.94,14.65,2.21,15,2.86l.83,2.38A21.73,21.73,0,0,0,16.88,8a1.54,1.54,0,0,0,.9,1.15h7.41l.58-1.73H20.2c-1.52.11-2.05-.41-2.13-.68l-.29-1c-.12-.28-.47-1.12-.9-2.19-.29-.78.48-1,.9-.93Z"/><path class="cls-2" d="M11.08,2c-4.39.9-5-.92-4.84-1.94h4.84A1.55,1.55,0,0,1,13,1.22L17,10h9.1l.64-1.37,1.05-3.22c.14-.4.66-1.81,1.7-4.19A1.39,1.39,0,0,1,31,3l-.56,1.7c-.35.83-1.29,3.2-2.26,6a2.18,2.18,0,0,1-1.45,1.45H21.79c-1.13,0-3.67.06-4.83,0a1.57,1.57,0,0,1-1.86-1l-1.21-2.5C13.68,8,12.82,5.83,11.08,2Z"/><path class="cls-1" d="M19.35,15.36a1.91,1.91,0,1,1-1.91-1.9A1.91,1.91,0,0,1,19.35,15.36Zm-2.81,0a.9.9,0,1,0,.9-.89A.9.9,0,0,0,16.54,15.36Z"/><path class="cls-1" d="M27.46,15.36a1.91,1.91,0,1,1-1.91-1.9A1.9,1.9,0,0,1,27.46,15.36Zm-2.8,0a.9.9,0,1,0,.89-.89A.89.89,0,0,0,24.66,15.36Z"/><path class="cls-1" d="M2.71,5.11H9a.42.42,0,0,1,.42.42h0A.42.42,0,0,1,9,6H2.71a.42.42,0,0,1-.42-.42h0A.42.42,0,0,1,2.71,5.11Z"/><path class="cls-1" d="M.42,5.11H.85a.42.42,0,0,1,.42.42h0A.42.42,0,0,1,.85,6H.42A.42.42,0,0,1,0,5.53H0A.42.42,0,0,1,.42,5.11Z"/><path class="cls-1" d="M5,8.09H9.92a.42.42,0,0,1,.42.43h0a.42.42,0,0,1-.42.42H5a.42.42,0,0,1-.42-.42h0A.42.42,0,0,1,5,8.09Z"/><path class="cls-1" d="M2.71,8.09h.43a.42.42,0,0,1,.42.43h0a.42.42,0,0,1-.42.42H2.71a.42.42,0,0,1-.42-.42h0A.42.42,0,0,1,2.71,8.09Z"/><path class="cls-1" d="M6.14,11.08h4.92a.42.42,0,0,1,.42.43h0a.42.42,0,0,1-.42.42H6.14a.42.42,0,0,1-.42-.42h0A.42.42,0,0,1,6.14,11.08Z"/><path class="cls-1" d="M3.86,11.08h.42a.42.42,0,0,1,.42.43h0a.42.42,0,0,1-.42.42H3.86a.42.42,0,0,1-.43-.42h0A.43.43,0,0,1,3.86,11.08Z"/></g></g></svg>