<svg width="136" height="129" viewBox="0 0 136 129" fill="none" xmlns="http://www.w3.org/2000/svg">
<path d="M121.333 54.3333C121.333 40.1885 115.714 26.6229 105.712 16.621C95.7103 6.61903 82.1447 1 67.9998 1C53.855 1 40.2894 6.61903 30.2875 16.621C20.2855 26.6229 14.6665 40.1885 14.6665 54.3333" stroke="black" stroke-width="2" stroke-linecap="round" stroke-linejoin="round"/>
<path d="M121.333 100.998V104.332C121.333 107.868 119.928 111.259 117.428 113.76C114.928 116.26 111.536 117.665 108 117.665H84.6666M1.33325 83.9184V71.4117C1.3337 68.4384 2.32794 65.5506 4.15795 63.2072C5.98796 60.8638 8.54873 59.1994 11.4333 58.4784L23.0333 55.5717C23.6227 55.4249 24.2378 55.4143 24.832 55.5406C25.4261 55.667 25.9837 55.927 26.4624 56.301C26.9411 56.6749 27.3283 57.153 27.5947 57.6989C27.8611 58.2448 27.9997 58.8442 27.9999 59.4517V95.8717C28.001 96.4804 27.8631 97.0814 27.5967 97.6287C27.3304 98.1761 26.9426 98.6555 26.463 99.0303C25.9834 99.4051 25.4245 99.6656 24.829 99.7917C24.2335 99.9179 23.617 99.9065 23.0266 99.7584L11.4266 96.8584C8.5433 96.1361 5.98403 94.471 4.15532 92.1278C2.32661 89.7845 1.33333 86.8974 1.33325 83.925V83.9184ZM134.667 83.9184V71.4117C134.666 68.4384 133.672 65.5506 131.842 63.2072C130.012 60.8638 127.451 59.1994 124.567 58.4784L112.967 55.5717C112.377 55.4249 111.762 55.4143 111.168 55.5406C110.574 55.667 110.016 55.927 109.537 56.301C109.059 56.6749 108.672 57.153 108.405 57.6989C108.139 58.2448 108 58.8442 108 59.4517V95.8717C107.999 96.4797 108.137 97.0799 108.403 97.6266C108.669 98.1734 109.056 98.6523 109.535 99.027C110.014 99.4017 110.572 99.6624 111.166 99.7891C111.761 99.9158 112.377 99.9053 112.967 99.7584L124.567 96.8584C127.451 96.1373 130.012 94.4729 131.842 92.1295C133.672 89.7861 134.666 86.8983 134.667 83.925V83.9184Z" stroke="black" stroke-width="2"/>
<path d="M78 127.664H58C55.3478 127.664 52.8043 126.61 50.9289 124.735C49.0536 122.86 48 120.316 48 117.664C48 115.012 49.0536 112.468 50.9289 110.593C52.8043 108.718 55.3478 107.664 58 107.664H78C80.6522 107.664 83.1957 108.718 85.0711 110.593C86.9464 112.468 88 115.012 88 117.664C88 120.316 86.9464 122.86 85.0711 124.735C83.1957 126.61 80.6522 127.664 78 127.664Z" stroke="black" stroke-width="2"/>
</svg>
