<svg width="24" height="24" viewBox="0 0 24 24" fill="none" xmlns="http://www.w3.org/2000/svg">
<path d="M17.99 1.59754C16.9813 1.49052 15.9675 1.43845 14.953 1.44154C11.59 1.44154 9.50005 3.58354 9.50005 7.03154V9.37254H6.67505C6.54244 9.37254 6.41526 9.42521 6.3215 9.51898C6.22773 9.61275 6.17505 9.73993 6.17505 9.87254V13.7225C6.17505 13.8551 6.22773 13.9823 6.3215 14.0761C6.41526 14.1699 6.54244 14.2225 6.67505 14.2225H9.50005V21.9425C9.50005 22.0751 9.55273 22.2023 9.64649 22.2961C9.74026 22.3899 9.86744 22.4425 10 22.4425H13.978C14.1107 22.4425 14.2378 22.3899 14.3316 22.2961C14.4254 22.2023 14.478 22.0751 14.478 21.9425V14.2225H17.294C17.4154 14.2226 17.5327 14.1785 17.624 14.0984C17.7152 14.0184 17.7743 13.9079 17.79 13.7875L18.287 9.93754C18.2963 9.86697 18.2904 9.79524 18.2697 9.72714C18.249 9.65905 18.214 9.59616 18.167 9.54267C18.1201 9.48919 18.0623 9.44634 17.9974 9.417C17.9326 9.38766 17.8622 9.3725 17.791 9.37254H14.478V7.41354C14.478 6.44354 14.673 6.03854 15.886 6.03854H17.925C18.0577 6.03854 18.1848 5.98586 18.2786 5.89209C18.3724 5.79832 18.425 5.67114 18.425 5.53854V2.09354C18.4251 1.97214 18.381 1.85488 18.301 1.76361C18.2209 1.67235 18.1104 1.61332 17.99 1.59754ZM17.425 5.03754L15.885 5.03854C13.728 5.03854 13.478 6.39454 13.478 7.41354V9.87354C13.478 10.006 13.5306 10.133 13.6241 10.2267C13.7177 10.3205 13.8446 10.3733 13.977 10.3735H17.223L16.854 13.2235H13.978C13.8454 13.2235 13.7183 13.2762 13.6245 13.37C13.5307 13.4637 13.478 13.5909 13.478 13.7235V21.4415H10.5V13.7235C10.5 13.5909 10.4474 13.4637 10.3536 13.37C10.2598 13.2762 10.1327 13.2235 10 13.2235H7.17605V10.3735H10C10.1327 10.3735 10.2598 10.3209 10.3536 10.2271C10.4474 10.1333 10.5 10.0061 10.5 9.87354V7.03154C10.5 4.15754 12.165 2.44154 14.953 2.44154C15.962 2.44154 16.873 2.49654 17.425 2.54454V5.03754Z" fill="#FECF00"/>
</svg>
