<svg width="68" height="68" viewBox="0 0 68 68" fill="none" xmlns="http://www.w3.org/2000/svg">
<path d="M46.9487 62.3328C47.7013 62.3371 48.4471 62.1915 49.1427 61.9045C49.8384 61.6175 50.4699 61.1948 51.0004 60.6611L58.6787 52.9828C59.2065 52.4519 59.5027 51.7338 59.5027 50.9853C59.5027 50.2367 59.2065 49.5186 58.6787 48.9878L47.3454 37.6544C46.8146 37.1267 46.0964 36.8305 45.3479 36.8305C44.5994 36.8305 43.8813 37.1267 43.3504 37.6544L38.8171 42.1594C35.6785 41.3226 32.7716 39.782 30.3171 37.6544C28.1953 35.196 26.6554 32.2905 25.8121 29.1544L30.3171 24.6211C30.8448 24.0902 31.141 23.3721 31.141 22.6236C31.141 21.8751 30.8448 21.157 30.3171 20.6261L18.9838 9.29276C18.4529 8.76505 17.7348 8.46884 16.9863 8.46884C16.2377 8.46884 15.5196 8.76505 14.9888 9.29276L7.33875 16.9994C6.80504 17.5299 6.38235 18.1615 6.09533 18.8571C5.80832 19.5527 5.66274 20.2986 5.66709 21.0511C5.92413 31.9376 10.2743 42.3274 17.8504 50.1494C25.6725 57.7255 36.0623 62.0757 46.9487 62.3328ZM17.0004 15.3278L24.3388 22.6661L20.6838 26.3211C20.3376 26.6454 20.0783 27.0513 19.9298 27.5018C19.7813 27.9523 19.7483 28.4329 19.8338 28.8994C20.8928 33.6321 23.1349 38.0189 26.3504 41.6494C29.9781 44.8691 34.366 47.1118 39.1004 48.1661C39.5599 48.2621 40.0361 48.2425 40.4861 48.109C40.9362 47.9755 41.346 47.7322 41.6788 47.4011L45.3338 43.6611L52.6721 50.9994L47.0054 56.6661C37.6093 56.4242 28.644 52.6743 21.8738 46.1544C15.337 39.3814 11.5763 30.4042 11.3338 20.9944L17.0004 15.3278ZM56.6671 31.1661H62.3337C62.4072 27.7973 61.7978 24.4484 60.5424 21.3214C59.2869 18.1944 57.4113 15.354 55.0286 12.9713C52.6459 10.5886 49.8054 8.71296 46.6784 7.45747C43.5514 6.20199 40.2026 5.59262 36.8338 5.66609V11.3328C39.4628 11.2418 42.0825 11.6926 44.5299 12.6572C46.9774 13.6217 49.2002 15.0793 51.0604 16.9395C52.9205 18.7996 54.3782 21.0225 55.3427 23.4699C56.3072 25.9174 56.758 28.537 56.6671 31.1661Z" fill="#FDA402"/>
<path d="M36.833 22.6667C42.783 22.6667 45.333 25.2167 45.333 31.1667H50.9997C50.9997 22.0433 45.9563 17 36.833 17V22.6667Z" fill="#FFA500"/>
</svg>