<svg width="68" height="68" viewBox="0 0 68 68" fill="none" xmlns="http://www.w3.org/2000/svg">
<path d="M56.667 5.66602H11.3337C8.21699 5.66602 5.69533 8.21602 5.69533 11.3327L5.66699 62.3327L17.0003 50.9994H56.667C59.7837 50.9994 62.3337 48.4494 62.3337 45.3327V11.3327C62.3337 8.21602 59.7837 5.66602 56.667 5.66602ZM56.667 45.3327H14.6487L12.977 47.0044L11.3337 48.6477V11.3327H56.667V45.3327ZM29.7503 39.666H51.0003V33.9994H35.417L29.7503 39.666ZM40.687 23.0343C41.2537 22.4677 41.2537 21.5893 40.687 21.0227L35.672 16.0077C35.1053 15.441 34.227 15.441 33.6603 16.0077L17.0003 32.6677V39.666H23.9987L40.687 23.0343Z" fill="#FFA500"/>
</svg>