<svg width="68" height="68" viewBox="0 0 68 68" fill="none" xmlns="http://www.w3.org/2000/svg">
<path d="M57.3746 27.1992C59.519 28.434 61.2577 30.2662 62.3787 32.4721C63.4997 34.6781 63.9546 37.1626 63.6879 39.6227C63.4211 42.0827 62.4443 44.412 60.8765 46.3264C59.3088 48.2409 57.2178 49.6578 54.8586 50.4043C54.0248 54.1881 51.9238 57.5737 48.9033 60.0006C45.8829 62.4274 42.1242 63.75 38.2496 63.7493H31.8746C31.311 63.7493 30.7705 63.5254 30.372 63.1269C29.9735 62.7284 29.7496 62.1879 29.7496 61.6243C29.7496 61.0607 29.9735 60.5202 30.372 60.1217C30.7705 59.7232 31.311 59.4993 31.8746 59.4993H38.2496C40.8872 59.5 43.4602 58.683 45.6142 57.1608C47.7682 55.6385 49.3973 53.4858 50.2771 50.9993H48.8746C48.311 50.9993 47.7705 50.7754 47.372 50.3769C46.9735 49.9784 46.7496 49.4379 46.7496 48.8743V27.6242C46.7496 27.0607 46.9735 26.5202 47.372 26.1216C47.7705 25.7231 48.311 25.4992 48.8746 25.4992H50.9996C51.6881 25.4992 52.3639 25.5545 53.0269 25.6607C52.5484 20.947 50.3374 16.5787 46.8221 13.4021C43.3068 10.2255 38.7375 8.46688 33.9996 8.46688C29.2617 8.46688 24.6924 10.2255 21.1771 13.4021C17.6618 16.5787 15.4507 20.947 14.9723 25.6607C15.6427 25.5534 16.3206 25.4994 16.9996 25.4992H19.1246C19.6882 25.4992 20.2287 25.7231 20.6272 26.1216C21.0257 26.5202 21.2496 27.0607 21.2496 27.6242V48.8743C21.2496 49.4379 21.0257 49.9784 20.6272 50.3769C20.2287 50.7754 19.6882 50.9993 19.1246 50.9993H16.9996C14.1902 51.0024 11.4585 50.0776 9.22885 48.3685C6.99918 46.6594 5.39639 44.2618 4.66952 41.5481C3.94264 38.8345 4.13238 35.9567 5.20924 33.362C6.28611 30.7672 8.1898 28.6008 10.6246 27.1992C10.6246 20.9998 13.0873 15.0543 17.4709 10.6706C21.8546 6.28694 27.8001 3.82422 33.9996 3.82422C40.199 3.82422 46.1446 6.28694 50.5282 10.6706C54.9119 15.0543 57.3746 20.9998 57.3746 27.1992ZM16.9996 29.7492C14.7452 29.7492 12.5832 30.6448 10.9892 32.2388C9.39509 33.8329 8.49956 35.9949 8.49956 38.2493C8.49956 40.5036 9.39509 42.6656 10.9892 44.2597C12.5832 45.8537 14.7452 46.7493 16.9996 46.7493V29.7492ZM59.4996 38.2493C59.4996 35.9949 58.6041 33.8329 57.01 32.2388C55.416 30.6448 53.2539 29.7492 50.9996 29.7492V46.7493C53.2539 46.7493 55.416 45.8537 57.01 44.2597C58.6041 42.6656 59.4996 40.5036 59.4996 38.2493Z" fill="#FDA402"/>
</svg>